# xmcd CD database file
#
# Track frame offsets:
#	150
#	17935
#	29352
#	50472
#	64325
#	76597
#	86710
#	103323
#	117813
#	136008
#	153118
#	169617
#	187279
#	202406
#	218636
#	232639
#
# Disc length: 3310 seconds
#
# Revision: 0
# Processed by: cddbd v1.5.2PL0 Copyright (c) Steve Scherf et al.
# Submitted via: CDex 1.51
#
DISCID=d40cec10
DTITLE=Bill Abel - One-Man Band
DYEAR=2007
DGENRE=Blues
TTITLE0=Barkin' All Night
TTITLE1=Hometown
TTITLE2=Buryin' Ground
TTITLE3=Mailman
TTITLE4=John Henry
TTITLE5=Don 't You Hurt (Inst.)
TTITLE6=Rob And Steal
TTITLE7=On My Shoulder
TTITLE8=The Lord Will
TTITLE9=Goin' Down
TTITLE10=Sho' Nuff Ride
TTITLE11=No Dog Here
TTITLE12=No Good Time Fun
TTITLE13=Burden Down
TTITLE14=Little Airplane
TTITLE15=The Waiting (Inst.)
EXTD=YEAR: 2007
EXTT0=
EXTT1=
EXTT2=
EXTT3=
EXTT4=
EXTT5=
EXTT6=
EXTT7=
EXTT8=
EXTT9=
EXTT10=
EXTT11=
EXTT12=
EXTT13=
EXTT14=
EXTT15=
PLAYORDER=
